<svg width="45" height="28" viewBox="0 0 45 28" fill="none" xmlns="http://www.w3.org/2000/svg">
<rect x="0.5" y="0.5" width="44" height="27" rx="7.5" fill="#FEC10E"/>
<path d="M10.586 11.608V14.176H13.838V15.466H10.586V19H8.966V10.324H14.438V11.608H10.586ZM18.3849 14.452C18.6889 14.452 18.9529 14.414 19.1769 14.338C19.4049 14.262 19.5909 14.158 19.7349 14.026C19.8829 13.89 19.9929 13.73 20.0649 13.546C20.1369 13.362 20.1729 13.16 20.1729 12.94C20.1729 12.5 20.0269 12.162 19.7349 11.926C19.4469 11.69 19.0049 11.572 18.4089 11.572H17.3769V14.452H18.3849ZM22.5369 19H21.0789C20.8029 19 20.6029 18.892 20.4789 18.676L18.6549 15.898C18.5869 15.794 18.5109 15.72 18.4269 15.676C18.3469 15.632 18.2269 15.61 18.0669 15.61H17.3769V19H15.7629V10.324H18.4089C18.9969 10.324 19.5009 10.386 19.9209 10.51C20.3449 10.63 20.6909 10.8 20.9589 11.02C21.2309 11.24 21.4309 11.504 21.5589 11.812C21.6869 12.116 21.7509 12.452 21.7509 12.82C21.7509 13.112 21.7069 13.388 21.6189 13.648C21.5349 13.908 21.4109 14.144 21.2469 14.356C21.0869 14.568 20.8869 14.754 20.6469 14.914C20.4109 15.074 20.1409 15.2 19.8369 15.292C19.9409 15.352 20.0369 15.424 20.1249 15.508C20.2129 15.588 20.2929 15.684 20.3649 15.796L22.5369 19ZM25.0938 11.608V14.014H28.1298V15.256H25.0938V17.71H28.9458V19H23.4738V10.324H28.9458V11.608H25.0938ZM31.9962 11.608V14.014H35.0322V15.256H31.9962V17.71H35.8482V19H30.3762V10.324H35.8482V11.608H31.9962Z" fill="#271D04"/>
<rect x="0.5" y="0.5" width="44" height="27" rx="7.5" stroke="#271D04"/>
</svg>
