<svg width="24" height="25" viewBox="0 0 24 25" fill="none" xmlns="http://www.w3.org/2000/svg">
<path d="M9.87988 10.4082C9.58514 10.6829 9.34873 11.0141 9.18476 11.3821C9.02079 11.75 8.93262 12.1473 8.92552 12.5501C8.91841 12.9529 8.99251 13.353 9.14339 13.7266C9.29428 14.1001 9.51885 14.4395 9.80373 14.7244C10.0886 15.0092 10.4279 15.2338 10.8015 15.3847C11.175 15.5356 11.5752 15.6097 11.978 15.6026C12.3808 15.5955 12.778 15.5073 13.146 15.3433C13.514 15.1794 13.8452 14.943 14.1199 14.6482" stroke="#120217" stroke-width="2" stroke-linecap="round" stroke-linejoin="round"/>
<path d="M10.73 5.60734C11.1513 5.55485 11.5754 5.52814 12 5.52734C19 5.52734 22 12.5273 22 12.5273C21.5529 13.4845 20.9922 14.3843 20.33 15.2073" stroke="#120217" stroke-width="2" stroke-linecap="round" stroke-linejoin="round"/>
<path d="M6.61 7.13672C4.62125 8.49134 3.02987 10.352 2 12.5267C2 12.5267 5 19.5267 12 19.5267C13.9159 19.5319 15.7908 18.9718 17.39 17.9167" stroke="#120217" stroke-width="2" stroke-linecap="round" stroke-linejoin="round"/>
<path d="M2 2.52734L22 22.5273" stroke="#120217" stroke-width="2" stroke-linecap="round" stroke-linejoin="round"/>
</svg>
