<svg width="24" height="25" viewBox="0 0 24 25" fill="none" xmlns="http://www.w3.org/2000/svg">
<path d="M19 11.5273H5C3.89543 11.5273 3 12.4228 3 13.5273V20.5273C3 21.6319 3.89543 22.5273 5 22.5273H19C20.1046 22.5273 21 21.6319 21 20.5273V13.5273C21 12.4228 20.1046 11.5273 19 11.5273Z" stroke="#120217" stroke-width="2" stroke-linecap="round" stroke-linejoin="round"/>
<path d="M7 11.5273V7.52734C7 6.20126 7.52678 4.92949 8.46447 3.99181C9.40215 3.05413 10.6739 2.52734 12 2.52734C13.3261 2.52734 14.5979 3.05413 15.5355 3.99181C16.4732 4.92949 17 6.20126 17 7.52734V11.5273" stroke="#120217" stroke-width="2" stroke-linecap="round" stroke-linejoin="round"/>
</svg>
