<svg width="56" height="28" viewBox="0 0 56 28" fill="none" xmlns="http://www.w3.org/2000/svg">
<rect x="0.5" y="0.5" width="55" height="27" rx="7.5" fill="#FEC10E"/>
<path d="M16.67 14.662C16.67 15.298 16.564 15.882 16.352 16.414C16.14 16.946 15.842 17.404 15.458 17.788C15.074 18.172 14.612 18.47 14.072 18.682C13.532 18.894 12.932 19 12.272 19H8.966V10.324H12.272C12.932 10.324 13.532 10.432 14.072 10.648C14.612 10.86 15.074 11.158 15.458 11.542C15.842 11.922 16.14 12.378 16.352 12.91C16.564 13.442 16.67 14.026 16.67 14.662ZM15.014 14.662C15.014 14.186 14.95 13.76 14.822 13.384C14.698 13.004 14.516 12.684 14.276 12.424C14.04 12.16 13.752 11.958 13.412 11.818C13.076 11.678 12.696 11.608 12.272 11.608H10.586V17.716H12.272C12.696 17.716 13.076 17.646 13.412 17.506C13.752 17.366 14.04 17.166 14.276 16.906C14.516 16.642 14.698 16.322 14.822 15.946C14.95 15.566 15.014 15.138 15.014 14.662ZM20.7169 14.452C21.0209 14.452 21.2849 14.414 21.5089 14.338C21.7369 14.262 21.9229 14.158 22.0669 14.026C22.2149 13.89 22.3249 13.73 22.3969 13.546C22.4689 13.362 22.5049 13.16 22.5049 12.94C22.5049 12.5 22.3589 12.162 22.0669 11.926C21.7789 11.69 21.3369 11.572 20.7409 11.572H19.7089V14.452H20.7169ZM24.8689 19H23.4109C23.1349 19 22.9349 18.892 22.8109 18.676L20.9869 15.898C20.9189 15.794 20.8429 15.72 20.7589 15.676C20.6789 15.632 20.5589 15.61 20.3989 15.61H19.7089V19H18.0949V10.324H20.7409C21.3289 10.324 21.8329 10.386 22.2529 10.51C22.6769 10.63 23.0229 10.8 23.2909 11.02C23.5629 11.24 23.7629 11.504 23.8909 11.812C24.0189 12.116 24.0829 12.452 24.0829 12.82C24.0829 13.112 24.0389 13.388 23.9509 13.648C23.8669 13.908 23.7429 14.144 23.5789 14.356C23.4189 14.568 23.2189 14.754 22.9789 14.914C22.7429 15.074 22.4729 15.2 22.1689 15.292C22.2729 15.352 22.3689 15.424 22.4569 15.508C22.5449 15.588 22.6249 15.684 22.6969 15.796L24.8689 19ZM30.3898 15.724L29.3338 12.838C29.2818 12.71 29.2278 12.558 29.1718 12.382C29.1158 12.206 29.0598 12.016 29.0038 11.812C28.9518 12.016 28.8978 12.208 28.8418 12.388C28.7858 12.564 28.7318 12.718 28.6798 12.85L27.6298 15.724H30.3898ZM33.2398 19H31.9918C31.8518 19 31.7378 18.966 31.6498 18.898C31.5618 18.826 31.4958 18.738 31.4518 18.634L30.8038 16.864H27.2098L26.5618 18.634C26.5298 18.726 26.4678 18.81 26.3758 18.886C26.2838 18.962 26.1698 19 26.0338 19H24.7738L28.1878 10.324H29.8318L33.2398 19ZM35.7579 11.608V14.176H39.0099V15.466H35.7579V19H34.1379V10.324H39.6099V11.608H35.7579ZM46.9948 11.65H44.3788V19H42.7648V11.65H40.1488V10.324H46.9948V11.65Z" fill="#271D04"/>
<rect x="0.5" y="0.5" width="55" height="27" rx="7.5" stroke="#271D04"/>
</svg>
