<svg width="32" height="32" viewBox="0 0 32 32" fill="none" xmlns="http://www.w3.org/2000/svg">
<rect width="32" height="32" rx="16" fill="white"/>
<g clip-path="url(#clip0_2247_19011)">
<path d="M16.0584 8.87792L16.0001 8.93702L15.9417 8.87792L15.9417 8.87791L15.9384 8.87457C15.3438 8.27792 14.6373 7.80451 13.8594 7.48149C13.0815 7.15847 12.2474 6.99219 11.4051 6.99219C10.5628 6.99219 9.72871 7.15847 8.95078 7.48149C8.17312 7.8044 7.46683 8.27759 6.87237 8.87395C4.32734 11.4196 4.27075 15.6288 7.28645 18.701L7.28642 18.701L7.29298 18.7076L15.293 26.7076C15.4805 26.8951 15.7349 27.0004 16.0001 27.0004C16.2653 27.0004 16.5197 26.8951 16.7072 26.7076L24.7072 18.7076L24.7072 18.7076L24.7137 18.701C27.7294 15.6288 27.6728 11.4196 25.1278 8.87395C24.5334 8.27759 23.8271 7.8044 23.0494 7.48149C22.2715 7.15847 21.4374 6.99219 20.5951 6.99219C19.7528 6.99219 18.9187 7.15847 18.1408 7.48149C17.3628 7.80451 16.6563 8.27792 16.0618 8.87457L16.0584 8.87792Z" fill="#271D04" stroke="white" stroke-width="2" stroke-linecap="round" stroke-linejoin="round"/>
</g>
<defs>
<clipPath id="clip0_2247_19011">
<rect width="24" height="24" fill="white" transform="translate(4 5)"/>
</clipPath>
</defs>
</svg>
