<svg width="24" height="24" viewBox="0 0 24 24" fill="none" xmlns="http://www.w3.org/2000/svg">
<path d="M21 10V6C21 5.46957 20.7893 4.96086 20.4142 4.58579C20.0391 4.21071 19.5304 4 19 4H5C4.46957 4 3.96086 4.21071 3.58579 4.58579C3.21071 4.96086 3 5.46957 3 6V20C3 21.1 3.9 22 5 22H12" stroke="#271D04" stroke-width="2" stroke-linecap="round" stroke-linejoin="round"/>
<path d="M16 2V6" stroke="#271D04" stroke-width="2" stroke-linecap="round" stroke-linejoin="round"/>
<path d="M8 2V6" stroke="#271D04" stroke-width="2" stroke-linecap="round" stroke-linejoin="round"/>
<path d="M3 10H21" stroke="#271D04" stroke-width="2" stroke-linecap="round" stroke-linejoin="round"/>
<path d="M21.2902 14.6997C20.9494 14.3606 20.5158 14.1302 20.044 14.0377C19.5723 13.9451 19.0838 13.9945 18.6402 14.1797C18.3402 14.2997 18.0702 14.4797 17.8402 14.7097L17.5002 15.0497L17.1502 14.7097C16.8105 14.3689 16.3774 14.1367 15.9056 14.0423C15.4339 13.948 14.9447 13.9958 14.5002 14.1797C14.2002 14.2997 13.9402 14.4797 13.7102 14.7097C12.7602 15.6497 12.7102 17.2397 13.9102 18.4497L17.5002 21.9997L21.1002 18.4497C22.3002 17.2397 22.2402 15.6497 21.2902 14.7097V14.6997Z" stroke="#271D04" stroke-width="2" stroke-linecap="round" stroke-linejoin="round"/>
</svg>
