<svg width="33" height="32" viewBox="0 0 33 32" fill="none" xmlns="http://www.w3.org/2000/svg">
<rect x="0.5" width="32" height="32" rx="16" fill="white"/>
<g clip-path="url(#clip0_2247_18974)">
<path d="M16.5584 8.87792L16.5001 8.93702L16.4417 8.87792L16.4417 8.87791L16.4384 8.87457C15.8438 8.27792 15.1373 7.80451 14.3594 7.48149C13.5815 7.15847 12.7474 6.99219 11.9051 6.99219C11.0628 6.99219 10.2287 7.15847 9.45078 7.48149C8.67312 7.8044 7.96683 8.27759 7.37237 8.87395C4.82734 11.4196 4.77075 15.6288 7.78645 18.701L7.78642 18.701L7.79298 18.7076L15.793 26.7076C15.9805 26.8951 16.2349 27.0004 16.5001 27.0004C16.7653 27.0004 17.0197 26.8951 17.2072 26.7076L25.2072 18.7076L25.2072 18.7076L25.2137 18.701C28.2294 15.6288 28.1728 11.4196 25.6278 8.87395C25.0334 8.27759 24.3271 7.8044 23.5494 7.48149C22.7715 7.15847 21.9374 6.99219 21.0951 6.99219C20.2528 6.99219 19.4187 7.15847 18.6408 7.48149C17.8628 7.80451 17.1563 8.27792 16.5618 8.87457L16.5584 8.87792Z" stroke="white" stroke-width="2" stroke-linecap="round" stroke-linejoin="round"/>
<path d="M16.5584 8.87792L16.5001 8.93702L16.4417 8.87792L16.4417 8.87791L16.4384 8.87457C15.8438 8.27792 15.1373 7.80451 14.3594 7.48149C13.5815 7.15847 12.7474 6.99219 11.9051 6.99219C11.0628 6.99219 10.2287 7.15847 9.45078 7.48149C8.67312 7.8044 7.96683 8.27759 7.37237 8.87395C4.82734 11.4196 4.77075 15.6288 7.78645 18.701L7.78642 18.701L7.79298 18.7076L15.793 26.7076C15.9805 26.8951 16.2349 27.0004 16.5001 27.0004C16.7653 27.0004 17.0197 26.8951 17.2072 26.7076L25.2072 18.7076L25.2072 18.7076L25.2137 18.701C28.2294 15.6288 28.1728 11.4196 25.6278 8.87395C25.0334 8.27759 24.3271 7.8044 23.5494 7.48149C22.7715 7.15847 21.9374 6.99219 21.0951 6.99219C20.2528 6.99219 19.4187 7.15847 18.6408 7.48149C17.8628 7.80451 17.1563 8.27792 16.5618 8.87457L16.5584 8.87792Z" stroke="black" stroke-opacity="0.28" stroke-width="2" stroke-linecap="round" stroke-linejoin="round"/>
</g>
<defs>
<clipPath id="clip0_2247_18974">
<rect width="24" height="24" fill="white" transform="translate(4.5 5)"/>
</clipPath>
</defs>
</svg>
